<svg width="208" height="58" viewBox="0 0 208 58" fill="none" xmlns="http://www.w3.org/2000/svg">
<g filter="url(#filter0_d)">
<rect x="4" width="200" height="50" rx="4" fill="#2196F3"/>
</g>
<path d="M43.4891 30H40.7469V20.7422H36.6609V30H33.9188V18.625H43.4891V30ZM45.7069 25.6953C45.7069 24.8516 45.8709 24.1016 46.1991 23.4453C46.5272 22.7839 46.9985 22.276 47.6131 21.9219C48.2277 21.5677 48.9491 21.3906 49.7772 21.3906C51.0428 21.3906 52.0402 21.7839 52.7694 22.5703C53.4985 23.3516 53.8631 24.4167 53.8631 25.7656V25.8594C53.8631 27.1771 53.4959 28.224 52.7616 29C52.0324 29.7708 51.0428 30.1562 49.7928 30.1562C48.5897 30.1562 47.6235 29.7969 46.8944 29.0781C46.1652 28.3542 45.772 27.375 45.7147 26.1406L45.7069 25.6953ZM48.3397 25.8594C48.3397 26.6406 48.4621 27.2135 48.7069 27.5781C48.9517 27.9427 49.3136 28.125 49.7928 28.125C50.7303 28.125 51.2095 27.4036 51.2303 25.9609V25.6953C51.2303 24.1797 50.7459 23.4219 49.7772 23.4219C48.897 23.4219 48.4204 24.0755 48.3475 25.3828L48.3397 25.8594ZM55.6434 27.9688C56.0653 27.5469 56.37 27.1276 56.5575 26.7109C56.7502 26.2943 56.8622 25.8099 56.8934 25.2578L56.9169 24.6797L56.9638 21.5469H63.5497V27.9688H64.8153V32.5625H62.1747V30H57.5966V32.5625H54.8934L54.8856 27.9688H55.6434ZM58.6747 27.9688H60.9247V23.5781H59.5731L59.5653 24.2734C59.5289 25.7943 59.232 27.026 58.6747 27.9688ZM74.0956 30H71.4472V23.5781H69.1191V30H66.4863V21.5469H74.0956V30ZM81.3838 21.5469H84.0244V30H81.3838V25.0781L79.0634 30H76.415V21.5469H79.0634V26.4531L81.3838 21.5469ZM89.9688 28.125C90.3385 28.125 90.625 28.026 90.8281 27.8281C91.0312 27.625 91.1302 27.3438 91.125 26.9844H93.5938C93.5938 27.9115 93.2604 28.6719 92.5938 29.2656C91.9323 29.8594 91.0781 30.1562 90.0312 30.1562C88.8021 30.1562 87.8333 29.7708 87.125 29C86.4167 28.2292 86.0625 27.1615 86.0625 25.7969V25.6875C86.0625 24.8333 86.2188 24.0807 86.5312 23.4297C86.849 22.7734 87.3047 22.2708 87.8984 21.9219C88.4922 21.5677 89.1953 21.3906 90.0078 21.3906C91.1068 21.3906 91.9792 21.6953 92.625 22.3047C93.2708 22.9141 93.5938 23.7396 93.5938 24.7812H91.125C91.125 24.3438 91.0182 24.0078 90.8047 23.7734C90.5911 23.5391 90.3047 23.4219 89.9453 23.4219C89.263 23.4219 88.8646 23.8568 88.75 24.7266C88.7135 25.0026 88.6953 25.3828 88.6953 25.8672C88.6953 26.7161 88.7969 27.3047 89 27.6328C89.2031 27.9609 89.526 28.125 89.9688 28.125ZM100.429 30C100.335 29.8281 100.252 29.5755 100.179 29.2422C99.6944 29.8516 99.0173 30.1562 98.1475 30.1562C97.3506 30.1562 96.6735 29.9167 96.1162 29.4375C95.559 28.9531 95.2803 28.3464 95.2803 27.6172C95.2803 26.7005 95.6189 26.0078 96.2959 25.5391C96.973 25.0703 97.9574 24.8359 99.2491 24.8359H100.062V24.3906C100.062 23.6146 99.7256 23.2266 99.0537 23.2266C98.4287 23.2266 98.1162 23.5339 98.1162 24.1484H95.4834C95.4834 23.3307 95.8298 22.6667 96.5225 22.1562C97.2204 21.6458 98.1084 21.3906 99.1866 21.3906C100.265 21.3906 101.116 21.6536 101.741 22.1797C102.366 22.7057 102.687 23.4271 102.702 24.3438V28.0859C102.713 28.862 102.832 29.4557 103.062 29.8672V30H100.429ZM98.7803 28.2812C99.1084 28.2812 99.3793 28.2109 99.5928 28.0703C99.8116 27.9297 99.9678 27.7708 100.062 27.5938V26.2422H99.2959C98.3793 26.2422 97.9209 26.6536 97.9209 27.4766C97.9209 27.7161 98.0017 27.9115 98.1631 28.0625C98.3246 28.2083 98.5303 28.2812 98.7803 28.2812ZM112.404 23.5625H109.74V30H107.092V23.5625H104.467V21.5469H112.404V23.5625ZM117.177 23.8672H118.528C119.31 23.8672 119.997 23.9948 120.591 24.25C121.185 24.5052 121.638 24.8672 121.95 25.3359C122.263 25.8047 122.419 26.349 122.419 26.9688C122.419 27.8802 122.065 28.6146 121.357 29.1719C120.653 29.724 119.693 30 118.474 30H114.528V21.5469H117.177V23.8672ZM117.177 25.8906V27.9844H118.513C118.914 27.9844 119.226 27.8932 119.45 27.7109C119.679 27.5234 119.794 27.2708 119.794 26.9531C119.794 26.6406 119.693 26.3854 119.489 26.1875C119.286 25.9896 118.961 25.8906 118.513 25.8906H117.177ZM127.934 28.125C128.304 28.125 128.59 28.026 128.793 27.8281C128.996 27.625 129.095 27.3438 129.09 26.9844H131.559C131.559 27.9115 131.225 28.6719 130.559 29.2656C129.897 29.8594 129.043 30.1562 127.996 30.1562C126.767 30.1562 125.798 29.7708 125.09 29C124.382 28.2292 124.027 27.1615 124.027 25.7969V25.6875C124.027 24.8333 124.184 24.0807 124.496 23.4297C124.814 22.7734 125.27 22.2708 125.863 21.9219C126.457 21.5677 127.16 21.3906 127.973 21.3906C129.072 21.3906 129.944 21.6953 130.59 22.3047C131.236 22.9141 131.559 23.7396 131.559 24.7812H129.09C129.09 24.3438 128.983 24.0078 128.77 23.7734C128.556 23.5391 128.27 23.4219 127.91 23.4219C127.228 23.4219 126.83 23.8568 126.715 24.7266C126.679 25.0026 126.66 25.3828 126.66 25.8672C126.66 26.7161 126.762 27.3047 126.965 27.6328C127.168 27.9609 127.491 28.125 127.934 28.125ZM140.988 21.5469V30H138.363V27.2031H137.347L135.855 30H133.23L134.964 26.7578C134.459 26.5182 134.068 26.2005 133.792 25.8047C133.521 25.4089 133.386 24.9609 133.386 24.4609C133.386 23.6016 133.73 22.9062 134.417 22.375C135.105 21.8385 136.001 21.5625 137.105 21.5469H140.988ZM136.019 24.5547C136.019 24.8099 136.123 25.0312 136.331 25.2188C136.545 25.401 136.818 25.4974 137.152 25.5078H138.363V23.5625H137.191C136.847 23.5625 136.566 23.6589 136.347 23.8516C136.128 24.0443 136.019 24.2786 136.019 24.5547Z" fill="white"/>
<path d="M176 13L152 26.5L159.67 29.3407L171.5 18.25L162.502 30.3896L162.509 30.3923L162.5 30.3896V37.0001L166.801 31.982L172.25 34.0001L176 13Z" fill="white"/>
<defs>
<filter id="filter0_d" x="0" y="0" width="208" height="58" filterUnits="userSpaceOnUse" color-interpolation-filters="sRGB">
<feFlood flood-opacity="0" result="BackgroundImageFix"/>
<feColorMatrix in="SourceAlpha" type="matrix" values="0 0 0 0 0 0 0 0 0 0 0 0 0 0 0 0 0 0 127 0"/>
<feOffset dy="4"/>
<feGaussianBlur stdDeviation="2"/>
<feColorMatrix type="matrix" values="0 0 0 0 0 0 0 0 0 0 0 0 0 0 0 0 0 0 0.15 0"/>
<feBlend mode="normal" in2="BackgroundImageFix" result="effect1_dropShadow"/>
<feBlend mode="normal" in="SourceGraphic" in2="effect1_dropShadow" result="shape"/>
</filter>
</defs>
</svg>
