<svg width="45" height="13" viewBox="0 0 45 13" fill="none" xmlns="http://www.w3.org/2000/svg">
<path d="M6.75 6.74219H1.82031V10.7734H7.54688V12H0.320312V0.625H7.46875V1.85938H1.82031V5.51562H6.75V6.74219ZM12.6753 7.75781H8.86281V6.57812H12.6753V7.75781ZM15.9288 3.54688L15.9678 4.48438C16.5876 3.75521 17.4235 3.39062 18.4756 3.39062C19.6579 3.39062 20.4626 3.84375 20.8897 4.75C21.1709 4.34375 21.5355 4.01562 21.9834 3.76562C22.4366 3.51562 22.9704 3.39062 23.585 3.39062C25.4392 3.39062 26.3819 4.3724 26.4131 6.33594V12H24.9678V6.42188C24.9678 5.81771 24.8298 5.36719 24.5538 5.07031C24.2777 4.76823 23.8142 4.61719 23.1631 4.61719C22.6267 4.61719 22.1814 4.77865 21.8272 5.10156C21.473 5.41927 21.2673 5.84896 21.21 6.39062V12H19.7569V6.46094C19.7569 5.23177 19.1553 4.61719 17.9522 4.61719C17.0043 4.61719 16.3558 5.02083 16.0069 5.82812V12H14.5616V3.54688H15.9288ZM34.2994 12C34.216 11.8333 34.1483 11.5365 34.0963 11.1094C33.4244 11.8073 32.6223 12.1562 31.69 12.1562C30.8567 12.1562 30.1718 11.9219 29.6353 11.4531C29.1041 10.9792 28.8384 10.3802 28.8384 9.65625C28.8384 8.77604 29.1718 8.09375 29.8384 7.60938C30.5103 7.11979 31.453 6.875 32.6666 6.875H34.0728V6.21094C34.0728 5.70573 33.9218 5.30469 33.6197 5.00781C33.3176 4.70573 32.8723 4.55469 32.2838 4.55469C31.7681 4.55469 31.3358 4.6849 30.9869 4.94531C30.6379 5.20573 30.4634 5.52083 30.4634 5.89062H29.0103C29.0103 5.46875 29.1588 5.0625 29.4556 4.67188C29.7577 4.27604 30.164 3.96354 30.6744 3.73438C31.19 3.50521 31.7551 3.39062 32.3697 3.39062C33.3436 3.39062 34.1067 3.63542 34.6588 4.125C35.2108 4.60938 35.4973 5.27865 35.5181 6.13281V10.0234C35.5181 10.7995 35.6171 11.4167 35.815 11.875V12H34.2994ZM31.9009 10.8984C32.3541 10.8984 32.7838 10.7812 33.19 10.5469C33.5963 10.3125 33.8905 10.0078 34.0728 9.63281V7.89844H32.94C31.1692 7.89844 30.2838 8.41667 30.2838 9.45312C30.2838 9.90625 30.4348 10.2604 30.7369 10.5156C31.039 10.7708 31.427 10.8984 31.9009 10.8984ZM39.8341 12H38.3887V3.54688H39.8341V12ZM38.2716 1.30469C38.2716 1.07031 38.3419 0.872396 38.4825 0.710938C38.6283 0.549479 38.8419 0.46875 39.1231 0.46875C39.4044 0.46875 39.6179 0.549479 39.7637 0.710938C39.9096 0.872396 39.9825 1.07031 39.9825 1.30469C39.9825 1.53906 39.9096 1.73438 39.7637 1.89062C39.6179 2.04688 39.4044 2.125 39.1231 2.125C38.8419 2.125 38.6283 2.04688 38.4825 1.89062C38.3419 1.73438 38.2716 1.53906 38.2716 1.30469ZM44.2047 12H42.7594V0H44.2047V12Z" fill="white" fill-opacity="0.6"/>
</svg>
